<?xml version="1.0" encoding="UTF-8"?>
<svg width="126px" height="163px" viewBox="0 0 126 163" version="1.1" xmlns="http://www.w3.org/2000/svg" xmlns:xlink="http://www.w3.org/1999/xlink">
    <title>C81931A7-C04A-43F4-BD75-5F13C6CC8EF8</title>
    <g id="Page-1" stroke="none" stroke-width="1" fill="none" fill-rule="evenodd">
        <g id="Clinic-dashboard-assignment" transform="translate(-1186.000000, -381.000000)" fill="#4780F5" fill-rule="nonzero">
            <g id="Side-info" transform="translate(1067.000000, 52.000000)">
                <g id="Match" transform="translate(0.000000, 329.000000)">
                    <g id="medal" transform="translate(119.000000, 0.000000)">
                        <path d="M56.9415335,51.2029995 L21.8185304,0 L34.3883387,0 L63.1845048,41.524791 L91.5663738,0 L103.998642,0 L69.1121406,50.6536326 L73.8321086,57.8388174 L113.272524,0 L126,0 L80.128754,67.5203655 L81.4169329,69.4873996 C99.4967252,76.5673865 112.326518,94.0920238 112.326518,114.580571 C112.326518,141.282474 90.5113419,163 63.689377,163 C62.0271565,163 60.4202875,162.923189 58.8134185,162.73951 C34.2541534,160.29992 15.0455272,139.627694 15.0455272,114.580571 C15.0455272,93.8532413 28.1671725,76.1482646 46.5857827,69.2519566 L0,0 L12.5429712,0 L57.4682109,66.5752541 C59.4960863,66.2863772 61.5793131,66.1544624 63.6876997,66.1544624 C64.7108626,66.1544624 65.7407348,66.1828491 66.7420927,66.2596603 L66.1885783,65.4197468 L56.9415335,51.2029995 Z M101.787939,114.580571 C101.787939,93.7764301 84.8705272,76.832886 64.0030351,76.6475373 C63.8990415,76.6475373 63.7933706,76.6475373 63.689377,76.6475373 C62.7383387,76.6475373 61.790655,76.675924 60.8429712,76.7527352 C58.0217252,76.963131 55.2826677,77.4874508 52.6744409,78.2739305 C37.0234026,82.997818 25.5874601,97.4767251 25.5874601,114.580571 C25.5874601,134.170761 40.6078275,150.356212 59.8164537,152.323246 C61.0811502,152.430114 62.3726837,152.508595 63.6910543,152.508595 C84.6860224,152.508595 101.787939,135.48323 101.787939,114.580571 Z" id="Shape"></path>
                        <path d="M64,83 C81.6793174,83 96,97.3136075 96,115.000838 C96,132.654566 81.6793174,147 64,147 C46.3407842,147 32,132.656241 32,115.000838 C32,97.3136075 46.3407842,83 64,83 Z" id="Path"></path>
                    </g>
                </g>
            </g>
        </g>
    </g>
</svg>